<mxfile host="Electron" agent="Mozilla/5.0 (Windows NT 10.0; Win64; x64) AppleWebKit/537.36 (KHTML, like Gecko) draw.io/26.0.9 Chrome/128.0.6613.186 Electron/32.2.5 Safari/537.36" version="26.0.9">
  <diagram name="Страница — 1" id="4ZSz0JAFuTdOmguWQPWU">
    <mxGraphModel dx="1687" dy="984" grid="1" gridSize="10" guides="1" tooltips="1" connect="1" arrows="1" fold="1" page="1" pageScale="1" pageWidth="827" pageHeight="1169" math="0" shadow="0">
      <root>
        <mxCell id="0" />
        <mxCell id="1" parent="0" />
        <mxCell id="oYJm5ToDIsL-59CE9eMB-1" value="" style="edgeStyle=orthogonalEdgeStyle;rounded=0;orthogonalLoop=1;jettySize=auto;html=1;" edge="1" parent="1" source="oYJm5ToDIsL-59CE9eMB-2">
          <mxGeometry relative="1" as="geometry">
            <mxPoint x="220" y="100" as="targetPoint" />
          </mxGeometry>
        </mxCell>
        <mxCell id="oYJm5ToDIsL-59CE9eMB-2" value="Начало" style="ellipse;whiteSpace=wrap;html=1;" vertex="1" parent="1">
          <mxGeometry x="160" y="30" width="120" height="40" as="geometry" />
        </mxCell>
        <mxCell id="oYJm5ToDIsL-59CE9eMB-3" value="" style="edgeStyle=orthogonalEdgeStyle;rounded=0;orthogonalLoop=1;jettySize=auto;html=1;" edge="1" parent="1" source="oYJm5ToDIsL-59CE9eMB-4">
          <mxGeometry relative="1" as="geometry">
            <mxPoint x="220" y="150" as="targetPoint" />
          </mxGeometry>
        </mxCell>
        <mxCell id="oYJm5ToDIsL-59CE9eMB-4" value="int main()" style="shape=process;whiteSpace=wrap;html=1;backgroundOutline=1;" vertex="1" parent="1">
          <mxGeometry x="160" y="100" width="120" height="30" as="geometry" />
        </mxCell>
        <mxCell id="oYJm5ToDIsL-59CE9eMB-5" value="setlocale(LC_ALL, &quot;Russian&quot;);" style="rounded=0;whiteSpace=wrap;html=1;" vertex="1" parent="1">
          <mxGeometry x="160" y="150" width="120" height="30" as="geometry" />
        </mxCell>
        <mxCell id="oYJm5ToDIsL-59CE9eMB-6" value="&lt;div&gt;#include &amp;lt;iostream&amp;gt;&lt;/div&gt;&lt;div&gt;#include &amp;lt;chrono&amp;gt;&amp;nbsp;&lt;/div&gt;&lt;div&gt;using namespace std;&lt;/div&gt;&lt;div&gt;&lt;div&gt;const int n = 10000;&lt;/div&gt;&lt;div&gt;int* arr = new int[n];&lt;/div&gt;&lt;/div&gt;&lt;div&gt;int key;&lt;br&gt;&lt;/div&gt;" style="strokeWidth=2;html=1;shape=mxgraph.flowchart.annotation_2;align=left;labelPosition=right;pointerEvents=1;" vertex="1" parent="1">
          <mxGeometry x="300" y="30" width="50" height="100" as="geometry" />
        </mxCell>
        <mxCell id="oYJm5ToDIsL-59CE9eMB-7" value="" style="endArrow=none;dashed=1;html=1;rounded=0;entryX=-0.04;entryY=0.503;entryDx=0;entryDy=0;entryPerimeter=0;" edge="1" parent="1" target="oYJm5ToDIsL-59CE9eMB-6">
          <mxGeometry width="50" height="50" relative="1" as="geometry">
            <mxPoint x="220" y="80" as="sourcePoint" />
            <mxPoint x="290" y="80" as="targetPoint" />
          </mxGeometry>
        </mxCell>
        <mxCell id="oYJm5ToDIsL-59CE9eMB-8" value="" style="edgeStyle=orthogonalEdgeStyle;rounded=0;orthogonalLoop=1;jettySize=auto;html=1;" edge="1" parent="1">
          <mxGeometry relative="1" as="geometry">
            <mxPoint x="223.97142857142853" y="180" as="sourcePoint" />
            <mxPoint x="223.97142857142853" y="200" as="targetPoint" />
          </mxGeometry>
        </mxCell>
        <mxCell id="oYJm5ToDIsL-59CE9eMB-9" style="edgeStyle=orthogonalEdgeStyle;rounded=0;orthogonalLoop=1;jettySize=auto;html=1;exitX=1;exitY=0.5;exitDx=0;exitDy=0;" edge="1" parent="1" source="oYJm5ToDIsL-59CE9eMB-10">
          <mxGeometry relative="1" as="geometry">
            <mxPoint x="473.97142857142853" y="310" as="targetPoint" />
          </mxGeometry>
        </mxCell>
        <mxCell id="oYJm5ToDIsL-59CE9eMB-10" value="" style="verticalLabelPosition=bottom;verticalAlign=top;html=1;shape=hexagon;perimeter=hexagonPerimeter2;arcSize=6;size=0.11951219512195121;" vertex="1" parent="1">
          <mxGeometry x="119.47142857142853" y="200" width="205" height="50" as="geometry" />
        </mxCell>
        <mxCell id="oYJm5ToDIsL-59CE9eMB-11" value="" style="edgeStyle=orthogonalEdgeStyle;rounded=0;orthogonalLoop=1;jettySize=auto;html=1;" edge="1" parent="1">
          <mxGeometry relative="1" as="geometry">
            <mxPoint x="223.73142857142852" y="250" as="sourcePoint" />
            <mxPoint x="223.97142857142853" y="270" as="targetPoint" />
          </mxGeometry>
        </mxCell>
        <mxCell id="oYJm5ToDIsL-59CE9eMB-12" value="for (int i = 0; i &amp;lt; n; i++)" style="text;html=1;align=center;verticalAlign=middle;whiteSpace=wrap;rounded=0;" vertex="1" parent="1">
          <mxGeometry x="163.97142857142853" y="210" width="120" height="30" as="geometry" />
        </mxCell>
        <mxCell id="oYJm5ToDIsL-59CE9eMB-13" value="" style="edgeStyle=orthogonalEdgeStyle;rounded=0;orthogonalLoop=1;jettySize=auto;html=1;entryX=0;entryY=0.5;entryDx=0;entryDy=0;" edge="1" parent="1" target="oYJm5ToDIsL-59CE9eMB-10">
          <mxGeometry relative="1" as="geometry">
            <mxPoint x="223.97142857142853" y="300" as="sourcePoint" />
            <mxPoint x="103.97142857142853" y="270" as="targetPoint" />
            <Array as="points">
              <mxPoint x="223.97142857142853" y="350" />
              <mxPoint x="99.97142857142853" y="350" />
              <mxPoint x="99.97142857142853" y="225" />
            </Array>
          </mxGeometry>
        </mxCell>
        <mxCell id="oYJm5ToDIsL-59CE9eMB-14" value="arr[i] = i * 2;&amp;nbsp;" style="rounded=0;whiteSpace=wrap;html=1;" vertex="1" parent="1">
          <mxGeometry x="163.97142857142853" y="270" width="120" height="30" as="geometry" />
        </mxCell>
        <mxCell id="oYJm5ToDIsL-59CE9eMB-15" style="edgeStyle=orthogonalEdgeStyle;rounded=0;orthogonalLoop=1;jettySize=auto;html=1;exitX=0.5;exitY=1;exitDx=0;exitDy=0;" edge="1" parent="1" source="oYJm5ToDIsL-59CE9eMB-16">
          <mxGeometry relative="1" as="geometry">
            <mxPoint x="475.0952380952381" y="360" as="targetPoint" />
          </mxGeometry>
        </mxCell>
        <mxCell id="oYJm5ToDIsL-59CE9eMB-16" value="cout &amp;lt;&amp;lt; &quot;Введите элемент: &quot;;" style="shape=parallelogram;perimeter=parallelogramPerimeter;whiteSpace=wrap;html=1;fixedSize=1;" vertex="1" parent="1">
          <mxGeometry x="410" y="310" width="130" height="30" as="geometry" />
        </mxCell>
        <mxCell id="oYJm5ToDIsL-59CE9eMB-17" value="cin &amp;gt;&amp;gt; key;" style="shape=parallelogram;perimeter=parallelogramPerimeter;whiteSpace=wrap;html=1;fixedSize=1;" vertex="1" parent="1">
          <mxGeometry x="410" y="360" width="130" height="30" as="geometry" />
        </mxCell>
        <mxCell id="oYJm5ToDIsL-59CE9eMB-18" value="auto start = chrono::high_resolution_clock::now();" style="rounded=0;whiteSpace=wrap;html=1;" vertex="1" parent="1">
          <mxGeometry x="340" y="410" width="250" height="30" as="geometry" />
        </mxCell>
        <mxCell id="oYJm5ToDIsL-59CE9eMB-19" style="edgeStyle=orthogonalEdgeStyle;rounded=0;orthogonalLoop=1;jettySize=auto;html=1;exitX=0.5;exitY=1;exitDx=0;exitDy=0;entryX=0.543;entryY=-0.003;entryDx=0;entryDy=0;entryPerimeter=0;" edge="1" parent="1" source="oYJm5ToDIsL-59CE9eMB-17" target="oYJm5ToDIsL-59CE9eMB-18">
          <mxGeometry relative="1" as="geometry" />
        </mxCell>
        <mxCell id="oYJm5ToDIsL-59CE9eMB-20" value="int result = interpolationSearch(arr, n, key);" style="rounded=0;whiteSpace=wrap;html=1;" vertex="1" parent="1">
          <mxGeometry x="340" y="460.03" width="250" height="30" as="geometry" />
        </mxCell>
        <mxCell id="oYJm5ToDIsL-59CE9eMB-21" style="edgeStyle=orthogonalEdgeStyle;rounded=0;orthogonalLoop=1;jettySize=auto;html=1;exitX=0.5;exitY=1;exitDx=0;exitDy=0;entryX=0.543;entryY=-0.003;entryDx=0;entryDy=0;entryPerimeter=0;" edge="1" parent="1" target="oYJm5ToDIsL-59CE9eMB-20">
          <mxGeometry relative="1" as="geometry">
            <mxPoint x="475" y="440.03" as="sourcePoint" />
          </mxGeometry>
        </mxCell>
        <mxCell id="oYJm5ToDIsL-59CE9eMB-22" value="auto end = chrono::high_resolution_clock::now();" style="rounded=0;whiteSpace=wrap;html=1;" vertex="1" parent="1">
          <mxGeometry x="340" y="510.03" width="250" height="30" as="geometry" />
        </mxCell>
        <mxCell id="oYJm5ToDIsL-59CE9eMB-23" style="edgeStyle=orthogonalEdgeStyle;rounded=0;orthogonalLoop=1;jettySize=auto;html=1;exitX=0.5;exitY=1;exitDx=0;exitDy=0;entryX=0.543;entryY=-0.003;entryDx=0;entryDy=0;entryPerimeter=0;" edge="1" parent="1" target="oYJm5ToDIsL-59CE9eMB-22">
          <mxGeometry relative="1" as="geometry">
            <mxPoint x="475" y="490.03" as="sourcePoint" />
          </mxGeometry>
        </mxCell>
        <mxCell id="oYJm5ToDIsL-59CE9eMB-24" value="auto duration = chrono::duration_cast&amp;lt;chrono::microseconds&amp;gt;(end - start);" style="rounded=0;whiteSpace=wrap;html=1;" vertex="1" parent="1">
          <mxGeometry x="290" y="560.06" width="340" height="30" as="geometry" />
        </mxCell>
        <mxCell id="oYJm5ToDIsL-59CE9eMB-25" style="edgeStyle=orthogonalEdgeStyle;rounded=0;orthogonalLoop=1;jettySize=auto;html=1;exitX=0.5;exitY=1;exitDx=0;exitDy=0;entryX=0.543;entryY=-0.003;entryDx=0;entryDy=0;entryPerimeter=0;" edge="1" parent="1" target="oYJm5ToDIsL-59CE9eMB-24">
          <mxGeometry relative="1" as="geometry">
            <mxPoint x="475" y="540.06" as="sourcePoint" />
          </mxGeometry>
        </mxCell>
        <mxCell id="oYJm5ToDIsL-59CE9eMB-26" value="" style="edgeStyle=orthogonalEdgeStyle;rounded=0;orthogonalLoop=1;jettySize=auto;html=1;" edge="1" parent="1">
          <mxGeometry relative="1" as="geometry">
            <mxPoint x="473.70285714285706" y="590.0000000000001" as="sourcePoint" />
            <mxPoint x="473.94285714285706" y="610.0000000000001" as="targetPoint" />
          </mxGeometry>
        </mxCell>
        <mxCell id="oYJm5ToDIsL-59CE9eMB-27" value="" style="edgeStyle=orthogonalEdgeStyle;rounded=0;orthogonalLoop=1;jettySize=auto;html=1;" edge="1" parent="1">
          <mxGeometry relative="1" as="geometry">
            <mxPoint x="473.94285714285706" y="590.0000000000001" as="sourcePoint" />
            <mxPoint x="473.94285714285706" y="610.0000000000001" as="targetPoint" />
          </mxGeometry>
        </mxCell>
        <mxCell id="oYJm5ToDIsL-59CE9eMB-28" style="edgeStyle=orthogonalEdgeStyle;rounded=0;orthogonalLoop=1;jettySize=auto;html=1;exitX=0;exitY=0.5;exitDx=0;exitDy=0;" edge="1" parent="1" source="oYJm5ToDIsL-59CE9eMB-30">
          <mxGeometry relative="1" as="geometry">
            <mxPoint x="330" y="700.0000000000001" as="targetPoint" />
          </mxGeometry>
        </mxCell>
        <mxCell id="oYJm5ToDIsL-59CE9eMB-29" style="edgeStyle=orthogonalEdgeStyle;rounded=0;orthogonalLoop=1;jettySize=auto;html=1;exitX=1;exitY=0.5;exitDx=0;exitDy=0;" edge="1" parent="1" source="oYJm5ToDIsL-59CE9eMB-30">
          <mxGeometry relative="1" as="geometry">
            <mxPoint x="629.9999999999998" y="700.0000000000001" as="targetPoint" />
          </mxGeometry>
        </mxCell>
        <mxCell id="oYJm5ToDIsL-59CE9eMB-30" value="if (result &amp;gt;= 0)&amp;nbsp;" style="rhombus;whiteSpace=wrap;html=1;" vertex="1" parent="1">
          <mxGeometry x="410" y="610.0000000000001" width="130" height="80" as="geometry" />
        </mxCell>
        <mxCell id="oYJm5ToDIsL-59CE9eMB-31" style="edgeStyle=orthogonalEdgeStyle;rounded=0;orthogonalLoop=1;jettySize=auto;html=1;exitX=0.5;exitY=1;exitDx=0;exitDy=0;" edge="1" parent="1">
          <mxGeometry relative="1" as="geometry">
            <mxPoint x="479.9999999999998" y="750.0000000000001" as="targetPoint" />
            <Array as="points">
              <mxPoint x="330" y="750.0000000000001" />
            </Array>
            <mxPoint x="330" y="730" as="sourcePoint" />
          </mxGeometry>
        </mxCell>
        <mxCell id="oYJm5ToDIsL-59CE9eMB-32" style="edgeStyle=orthogonalEdgeStyle;rounded=0;orthogonalLoop=1;jettySize=auto;html=1;exitX=0.57;exitY=0.962;exitDx=0;exitDy=0;exitPerimeter=0;" edge="1" parent="1" source="oYJm5ToDIsL-59CE9eMB-34">
          <mxGeometry relative="1" as="geometry">
            <mxPoint x="479.9999999999998" y="750.0000000000001" as="targetPoint" />
            <Array as="points">
              <mxPoint x="630" y="750" />
            </Array>
            <mxPoint x="629.9999999999998" y="730" as="sourcePoint" />
          </mxGeometry>
        </mxCell>
        <mxCell id="oYJm5ToDIsL-59CE9eMB-33" value="cout &amp;lt;&amp;lt; &quot;Элемент найден на индексе: &quot; &amp;lt;&amp;lt; result &amp;lt;&amp;lt; endl;" style="shape=parallelogram;perimeter=parallelogramPerimeter;whiteSpace=wrap;html=1;fixedSize=1;" vertex="1" parent="1">
          <mxGeometry x="220" y="700" width="210" height="30" as="geometry" />
        </mxCell>
        <mxCell id="oYJm5ToDIsL-59CE9eMB-34" value="cout &amp;lt;&amp;lt; &quot;Элемент не найден!&quot; &amp;lt;&amp;lt; endl;" style="shape=parallelogram;perimeter=parallelogramPerimeter;whiteSpace=wrap;html=1;fixedSize=1;" vertex="1" parent="1">
          <mxGeometry x="510" y="690" width="210" height="30" as="geometry" />
        </mxCell>
        <mxCell id="oYJm5ToDIsL-59CE9eMB-35" value="" style="endArrow=classic;html=1;rounded=0;" edge="1" parent="1">
          <mxGeometry width="50" height="50" relative="1" as="geometry">
            <mxPoint x="480" y="750" as="sourcePoint" />
            <mxPoint x="480" y="770" as="targetPoint" />
          </mxGeometry>
        </mxCell>
        <mxCell id="oYJm5ToDIsL-59CE9eMB-36" style="edgeStyle=orthogonalEdgeStyle;rounded=0;orthogonalLoop=1;jettySize=auto;html=1;exitX=0.5;exitY=1;exitDx=0;exitDy=0;" edge="1" parent="1" source="oYJm5ToDIsL-59CE9eMB-37" target="oYJm5ToDIsL-59CE9eMB-38">
          <mxGeometry relative="1" as="geometry" />
        </mxCell>
        <mxCell id="oYJm5ToDIsL-59CE9eMB-37" value="cout &amp;lt;&amp;lt; &quot;Программа выполнилась за &quot; &amp;lt;&amp;lt; duration.count() &amp;lt;&amp;lt; &quot; микросекунд.&quot; &amp;lt;&amp;lt; endl;" style="shape=parallelogram;perimeter=parallelogramPerimeter;whiteSpace=wrap;html=1;fixedSize=1;" vertex="1" parent="1">
          <mxGeometry x="330" y="770" width="300" height="30" as="geometry" />
        </mxCell>
        <mxCell id="oYJm5ToDIsL-59CE9eMB-38" value="return 0;" style="ellipse;whiteSpace=wrap;html=1;" vertex="1" parent="1">
          <mxGeometry x="420" y="820" width="120" height="50" as="geometry" />
        </mxCell>
        <mxCell id="oYJm5ToDIsL-59CE9eMB-39" value="1" style="text;html=1;align=center;verticalAlign=middle;resizable=0;points=[];autosize=1;strokeColor=none;fillColor=none;" vertex="1" parent="1">
          <mxGeometry x="375" y="618" width="30" height="30" as="geometry" />
        </mxCell>
        <mxCell id="oYJm5ToDIsL-59CE9eMB-40" value="0" style="text;html=1;align=center;verticalAlign=middle;resizable=0;points=[];autosize=1;strokeColor=none;fillColor=none;" vertex="1" parent="1">
          <mxGeometry x="540" y="618" width="30" height="30" as="geometry" />
        </mxCell>
        <mxCell id="oYJm5ToDIsL-59CE9eMB-41" value="}" style="text;html=1;align=center;verticalAlign=middle;resizable=0;points=[];autosize=1;strokeColor=none;fillColor=none;" vertex="1" parent="1">
          <mxGeometry x="540" y="840" width="30" height="30" as="geometry" />
        </mxCell>
        <mxCell id="oYJm5ToDIsL-59CE9eMB-42" value="{" style="text;html=1;align=center;verticalAlign=middle;resizable=0;points=[];autosize=1;strokeColor=none;fillColor=none;" vertex="1" parent="1">
          <mxGeometry x="120" y="120" width="30" height="30" as="geometry" />
        </mxCell>
        <mxCell id="oYJm5ToDIsL-59CE9eMB-43" value="int linearSearch(int arr[], int n, int key)" style="shape=process;whiteSpace=wrap;html=1;backgroundOutline=1;" vertex="1" parent="1">
          <mxGeometry x="810" y="50" width="260" height="30" as="geometry" />
        </mxCell>
        <mxCell id="oYJm5ToDIsL-59CE9eMB-44" value="" style="edgeStyle=orthogonalEdgeStyle;rounded=0;orthogonalLoop=1;jettySize=auto;html=1;" edge="1" parent="1">
          <mxGeometry relative="1" as="geometry">
            <mxPoint x="943.9714285714285" y="80" as="sourcePoint" />
            <mxPoint x="943.9714285714285" y="100" as="targetPoint" />
          </mxGeometry>
        </mxCell>
        <mxCell id="oYJm5ToDIsL-59CE9eMB-45" style="edgeStyle=orthogonalEdgeStyle;rounded=0;orthogonalLoop=1;jettySize=auto;html=1;exitX=1;exitY=0.5;exitDx=0;exitDy=0;" edge="1" source="oYJm5ToDIsL-59CE9eMB-46" parent="1">
          <mxGeometry relative="1" as="geometry">
            <mxPoint x="1193.9714285714285" y="210" as="targetPoint" />
          </mxGeometry>
        </mxCell>
        <mxCell id="oYJm5ToDIsL-59CE9eMB-46" value="" style="verticalLabelPosition=bottom;verticalAlign=top;html=1;shape=hexagon;perimeter=hexagonPerimeter2;arcSize=6;size=0.11951219512195121;" vertex="1" parent="1">
          <mxGeometry x="839.4714285714285" y="100" width="205" height="50" as="geometry" />
        </mxCell>
        <mxCell id="oYJm5ToDIsL-59CE9eMB-48" value="for (int i = 0; i &amp;lt; n; i++)" style="text;html=1;align=center;verticalAlign=middle;whiteSpace=wrap;rounded=0;" vertex="1" parent="1">
          <mxGeometry x="883.9714285714285" y="110" width="120" height="30" as="geometry" />
        </mxCell>
        <mxCell id="oYJm5ToDIsL-59CE9eMB-51" value="" style="edgeStyle=orthogonalEdgeStyle;rounded=0;orthogonalLoop=1;jettySize=auto;html=1;" edge="1" parent="1">
          <mxGeometry relative="1" as="geometry">
            <mxPoint x="943.702857142857" y="150.0000000000001" as="sourcePoint" />
            <mxPoint x="943.9428571428571" y="170.0000000000001" as="targetPoint" />
          </mxGeometry>
        </mxCell>
        <mxCell id="oYJm5ToDIsL-59CE9eMB-52" value="" style="edgeStyle=orthogonalEdgeStyle;rounded=0;orthogonalLoop=1;jettySize=auto;html=1;" edge="1" parent="1">
          <mxGeometry relative="1" as="geometry">
            <mxPoint x="943.9428571428571" y="150.0000000000001" as="sourcePoint" />
            <mxPoint x="943.9428571428571" y="170.0000000000001" as="targetPoint" />
          </mxGeometry>
        </mxCell>
        <mxCell id="oYJm5ToDIsL-59CE9eMB-53" style="edgeStyle=orthogonalEdgeStyle;rounded=0;orthogonalLoop=1;jettySize=auto;html=1;exitX=0;exitY=0.5;exitDx=0;exitDy=0;" edge="1" source="oYJm5ToDIsL-59CE9eMB-55" parent="1">
          <mxGeometry relative="1" as="geometry">
            <mxPoint x="800" y="260.0000000000001" as="targetPoint" />
          </mxGeometry>
        </mxCell>
        <mxCell id="oYJm5ToDIsL-59CE9eMB-55" value="if (arr[i] == key)&amp;nbsp;" style="rhombus;whiteSpace=wrap;html=1;" vertex="1" parent="1">
          <mxGeometry x="880" y="170.0000000000001" width="130" height="80" as="geometry" />
        </mxCell>
        <mxCell id="oYJm5ToDIsL-59CE9eMB-56" style="edgeStyle=orthogonalEdgeStyle;rounded=0;orthogonalLoop=1;jettySize=auto;html=1;exitX=0.5;exitY=1;exitDx=0;exitDy=0;" edge="1" parent="1">
          <mxGeometry relative="1" as="geometry">
            <mxPoint x="949.9999999999998" y="310.0000000000001" as="targetPoint" />
            <Array as="points">
              <mxPoint x="800" y="310.0000000000001" />
            </Array>
            <mxPoint x="800" y="290.0000000000001" as="sourcePoint" />
          </mxGeometry>
        </mxCell>
        <mxCell id="oYJm5ToDIsL-59CE9eMB-58" style="edgeStyle=orthogonalEdgeStyle;rounded=0;orthogonalLoop=1;jettySize=auto;html=1;exitX=1;exitY=0.5;exitDx=0;exitDy=0;" edge="1" source="oYJm5ToDIsL-59CE9eMB-55" parent="1">
          <mxGeometry relative="1" as="geometry">
            <mxPoint x="949.9999999999998" y="310.0000000000001" as="targetPoint" />
            <Array as="points">
              <mxPoint x="1100" y="210" />
              <mxPoint x="1100" y="310" />
            </Array>
            <mxPoint x="1100" y="290.0000000000001" as="sourcePoint" />
          </mxGeometry>
        </mxCell>
        <mxCell id="oYJm5ToDIsL-59CE9eMB-61" value="return i;&amp;nbsp;&amp;nbsp;" style="ellipse;whiteSpace=wrap;html=1;" vertex="1" parent="1">
          <mxGeometry x="740" y="260" width="120" height="40" as="geometry" />
        </mxCell>
        <mxCell id="oYJm5ToDIsL-59CE9eMB-62" value="" style="endArrow=classic;html=1;rounded=0;entryX=0;entryY=0.5;entryDx=0;entryDy=0;" edge="1" parent="1" target="oYJm5ToDIsL-59CE9eMB-46">
          <mxGeometry width="50" height="50" relative="1" as="geometry">
            <mxPoint x="950" y="310" as="sourcePoint" />
            <mxPoint x="1000" y="260" as="targetPoint" />
            <Array as="points">
              <mxPoint x="950" y="340" />
              <mxPoint x="730" y="340" />
              <mxPoint x="730" y="125" />
            </Array>
          </mxGeometry>
        </mxCell>
        <mxCell id="oYJm5ToDIsL-59CE9eMB-63" value="1" style="text;html=1;align=center;verticalAlign=middle;resizable=0;points=[];autosize=1;strokeColor=none;fillColor=none;" vertex="1" parent="1">
          <mxGeometry x="855" y="178" width="30" height="30" as="geometry" />
        </mxCell>
        <mxCell id="oYJm5ToDIsL-59CE9eMB-64" value="0" style="text;html=1;align=center;verticalAlign=middle;resizable=0;points=[];autosize=1;strokeColor=none;fillColor=none;" vertex="1" parent="1">
          <mxGeometry x="1015" y="178" width="30" height="30" as="geometry" />
        </mxCell>
        <mxCell id="oYJm5ToDIsL-59CE9eMB-65" value="{" style="text;html=1;align=center;verticalAlign=middle;resizable=0;points=[];autosize=1;strokeColor=none;fillColor=none;" vertex="1" parent="1">
          <mxGeometry x="815" y="78" width="30" height="30" as="geometry" />
        </mxCell>
        <mxCell id="oYJm5ToDIsL-59CE9eMB-66" value="return -1;" style="ellipse;whiteSpace=wrap;html=1;" vertex="1" parent="1">
          <mxGeometry x="1130" y="210" width="120" height="40" as="geometry" />
        </mxCell>
        <mxCell id="oYJm5ToDIsL-59CE9eMB-67" value="}" style="text;html=1;align=center;verticalAlign=middle;resizable=0;points=[];autosize=1;strokeColor=none;fillColor=none;" vertex="1" parent="1">
          <mxGeometry x="1205" y="248" width="30" height="30" as="geometry" />
        </mxCell>
      </root>
    </mxGraphModel>
  </diagram>
</mxfile>
